<svg width="55" height="55" viewBox="0 0 55 55" fill="none" xmlns="http://www.w3.org/2000/svg">
<path d="M40.3333 34.8334H14.6667C14.1604 34.8334 13.75 35.2438 13.75 35.75V50.4167C13.75 50.9229 14.1604 51.3334 14.6667 51.3334H40.3333C40.8396 51.3334 41.25 50.9229 41.25 50.4167V35.75C41.25 35.2438 40.8396 34.8334 40.3333 34.8334ZM39.3661 36.6667C38.8943 40.84 35.3664 43.9951 31.1667 44H28.4167V43.0834C28.4167 42.5771 28.0062 42.1667 27.5 42.1667C26.9938 42.1667 26.5833 42.5771 26.5833 43.0834V44H23.8333C19.6336 43.9951 16.1057 40.84 15.6339 36.6667H39.3661ZM39.4167 49.5H15.5833V41.5298C17.4663 44.2243 20.5458 45.8307 23.8333 45.8334H26.5833V46.75C26.5833 47.2563 26.9938 47.6667 27.5 47.6667C28.0062 47.6667 28.4167 47.2563 28.4167 46.75V45.8334H31.1667C34.4542 45.8307 37.5337 44.2243 39.4167 41.5298V49.5Z" fill="#4F4A44"/>
<path d="M49.5001 33H46.7501V18.2416C48.8829 17.8029 50.4141 15.9271 50.4167 13.75V8.25C50.4136 5.71977 48.3636 3.6698 45.8334 3.66667H34.7417C34.303 1.53389 32.4272 0.00268555 30.2501 0H24.7501C22.573 0.00268555 20.6971 1.53389 20.2585 3.66667H9.16675C6.63652 3.6698 4.58655 5.71977 4.58341 8.25V13.75C4.5861 15.9271 6.11731 17.8029 8.25008 18.2416V33H5.50008C2.96985 33.0031 0.919881 35.0531 0.916748 37.5833V44.9167C0.919881 47.4469 2.96985 49.4969 5.50008 49.5H8.25008V50.4167C8.25321 52.9469 10.3032 54.9969 12.8334 55H42.1667C44.697 54.9969 46.7469 52.9469 46.7501 50.4167V49.5H49.5001C52.0303 49.4969 54.0803 47.4469 54.0834 44.9167V37.5833C54.0803 35.0531 52.0303 33.0031 49.5001 33ZM48.5834 8.25V13.75C48.5834 15.2687 47.3521 16.5 45.8334 16.5H41.2501V5.5H45.8334C47.3521 5.5 48.5834 6.73132 48.5834 8.25ZM39.4167 5.5V16.5H37.5834V5.5H39.4167ZM37.5834 25.6667H39.4167V26.5833C39.4167 27.0896 39.0063 27.5 38.5001 27.5C37.9939 27.5 37.5834 27.0896 37.5834 26.5833V25.6667ZM37.5834 23.8333V18.3333H39.4167V23.8333H37.5834ZM35.7501 5.5V16.5H19.2501V5.5H35.7501ZM24.7501 1.83333H30.2501C31.4152 1.83468 32.4536 2.56873 32.8434 3.66667H22.1567C22.5466 2.56873 23.585 1.83468 24.7501 1.83333ZM17.4167 5.5V16.5H15.5834V5.5H17.4167ZM15.5834 25.6667H17.4167V26.5833C17.4167 27.0896 17.0063 27.5 16.5001 27.5C15.9939 27.5 15.5834 27.0896 15.5834 26.5833V25.6667ZM15.5834 23.8333V18.3333H17.4167V23.8333H15.5834ZM6.41675 13.75V8.25C6.41675 6.73132 7.64807 5.5 9.16675 5.5H13.7501V16.5H9.16675C7.64807 16.5 6.41675 15.2687 6.41675 13.75ZM5.50008 47.6667C3.9814 47.6667 2.75008 46.4353 2.75008 44.9167V37.5833C2.75008 36.0647 3.9814 34.8333 5.50008 34.8333H8.25008V47.6667H5.50008ZM44.9167 50.4167C44.9167 51.9353 43.6854 53.1667 42.1667 53.1667H12.8334C11.3147 53.1667 10.0834 51.9353 10.0834 50.4167V18.3333H13.7501V23.8333H12.8334C12.3272 23.8333 11.9167 24.2438 11.9167 24.75C11.9167 25.2562 12.3272 25.6667 12.8334 25.6667H13.7501V26.5833C13.7501 28.102 14.9814 29.3333 16.5001 29.3333C18.0188 29.3333 19.2501 28.102 19.2501 26.5833V25.6667H20.1667C20.673 25.6667 21.0834 25.2562 21.0834 24.75C21.0834 24.2438 20.673 23.8333 20.1667 23.8333H19.2501V18.3333H35.7501V23.8333H34.8334C34.3272 23.8333 33.9167 24.2438 33.9167 24.75C33.9167 25.2562 34.3272 25.6667 34.8334 25.6667H35.7501V26.5833C35.7501 28.102 36.9814 29.3333 38.5001 29.3333C40.0188 29.3333 41.2501 28.102 41.2501 26.5833V25.6667H42.1667C42.673 25.6667 43.0834 25.2562 43.0834 24.75C43.0834 24.2438 42.673 23.8333 42.1667 23.8333H41.2501V18.3333H44.9167V50.4167ZM52.2501 44.9167C52.2501 46.4353 51.0188 47.6667 49.5001 47.6667H46.7501V34.8333H49.5001C51.0188 34.8333 52.2501 36.0647 52.2501 37.5833V44.9167Z" fill="#4F4A44"/>
</svg>
