<svg width="55" height="52" viewBox="0 0 55 52" fill="none" xmlns="http://www.w3.org/2000/svg">
<g clip-path="url(#clip0)">
<path d="M44.3067 23.579L41.1665 14.6819C40.9316 14.0161 40.2993 13.5688 39.5933 13.5688H15.1912C14.4851 13.5688 13.8529 14.0161 13.618 14.6818L10.4778 23.579C10.2954 24.0958 10.6918 24.6549 11.239 24.6549H43.5455C43.8074 24.6549 44.0531 24.5277 44.2043 24.314C44.3557 24.1001 44.3939 23.8261 44.3067 23.579ZM12.3799 23.0404L15.1404 15.2191C15.1477 15.1984 15.169 15.1832 15.1911 15.1832H39.5933C39.6154 15.1832 39.6367 15.1984 39.6441 15.2192L42.4046 23.0404H12.3799Z" fill="#675F3A"/>
<path d="M42.8913 34.2342C40.0245 34.2342 37.7788 35.7235 37.7788 37.6246C37.7788 39.5258 40.0245 41.0151 42.8913 41.0151C45.7582 41.0151 48.0039 39.5258 48.0039 37.6246C48.0039 35.7235 45.7582 34.2342 42.8913 34.2342ZM42.8913 39.4005C40.8892 39.4005 39.3933 38.4629 39.3933 37.6246C39.3933 36.7863 40.8891 35.8487 42.8913 35.8487C44.8935 35.8487 46.3894 36.7863 46.3894 37.6246C46.3894 38.4629 44.8935 39.4005 42.8913 39.4005Z" fill="#675F3A"/>
<path d="M11.8933 34.2342C9.02642 34.2342 6.78076 35.7235 6.78076 37.6246C6.78076 39.5258 9.02642 41.0151 11.8933 41.0151C14.7602 41.0151 17.0058 39.5258 17.0058 37.6246C17.0058 35.7235 14.7602 34.2342 11.8933 34.2342ZM11.8933 39.4005C9.89127 39.4005 8.39521 38.4629 8.39521 37.6246C8.39521 36.7863 9.89116 35.8487 11.8933 35.8487C13.8954 35.8487 15.3914 36.7863 15.3914 37.6246C15.3914 38.4629 13.8954 39.4005 11.8933 39.4005Z" fill="#675F3A"/>
<path d="M53.2242 22.1794H48.9189C48.5485 22.1794 48.2256 22.4315 48.1358 22.7909L47.5687 25.0591L43.6026 13.8221C43.0038 12.1256 41.3927 10.9856 39.5935 10.9856H15.1913C13.3921 10.9856 11.781 12.1256 11.1823 13.8222L7.21624 25.0592L6.64916 22.7909C6.55925 22.4314 6.23634 22.1794 5.86606 22.1794H1.56069C1.11489 22.1794 0.753418 22.5408 0.753418 22.9867V26.4309C0.753418 26.8769 1.11489 27.2382 1.56069 27.2382H6.01945L3.26741 31.091C2.74942 31.8162 2.47561 32.6709 2.47561 33.5622V43.6521C2.47561 45.0502 3.15419 46.2926 4.19908 47.0679C4.19876 47.0773 4.19769 47.0867 4.19769 47.0962V49.6794C4.19769 50.5994 4.94609 51.3477 5.86595 51.3477H11.0323C11.9523 51.3477 12.7006 50.5993 12.7006 49.6794V47.9035H42.0841V49.6794C42.0841 50.5994 42.8325 51.3477 43.7524 51.3477H48.9187C49.8387 51.3477 50.587 50.5993 50.587 49.6794V47.0962C50.587 47.0867 50.5859 47.0773 50.5856 47.0679C51.6305 46.2926 52.309 45.0502 52.309 43.6521V33.5622C52.309 32.6708 52.0351 31.8161 51.5171 31.091L48.7651 27.2382H53.224C53.6699 27.2382 54.0312 26.8769 54.0312 26.4309V22.9867C54.0313 22.5407 53.6701 22.1794 53.2242 22.1794ZM2.36797 25.6236V23.7938H5.2357L5.69311 25.6236H2.36797ZM11.0862 49.6794C11.0862 49.7091 11.0622 49.7332 11.0324 49.7332H5.86606C5.83641 49.7332 5.81224 49.7091 5.81224 49.6794V47.9035H6.72715H11.0862V49.6794ZM48.9726 49.6794C48.9726 49.7091 48.9485 49.7332 48.9188 49.7332H43.7525C43.7228 49.7332 43.6986 49.7091 43.6986 49.6794V47.9035H48.0577H48.9726V49.6794ZM48.0578 46.289H6.72704C5.55453 46.289 4.55873 45.5196 4.21691 44.4592H50.5678C50.226 45.5196 49.2303 46.289 48.0578 46.289ZM34.3347 37.5708V39.4005H20.4502V37.5708H34.3347ZM20.5771 35.9563C20.9189 34.8959 21.9146 34.1265 23.0872 34.1265H31.6978C32.8703 34.1265 33.8661 34.8959 34.2079 35.9563H20.5771ZM34.3347 41.015V42.8447H20.4502V41.015H34.3347ZM50.2037 32.0293C50.525 32.4791 50.6948 33.0091 50.6948 33.562V42.8448H35.9492V36.7635C35.9492 34.4193 34.042 32.5121 31.6978 32.5121H23.0872C20.7429 32.5121 18.8357 34.4194 18.8357 36.7635V42.8448H4.09005V33.562C4.09005 33.0091 4.25988 32.4791 4.58118 32.0293L8.00354 27.2381H37.725C38.1709 27.2381 38.5323 26.8767 38.5323 26.4308C38.5323 25.9849 38.1709 25.6236 37.725 25.6236H8.72906L12.7046 14.3594C13.0761 13.3072 14.0753 12.6001 15.1913 12.6001H39.5936C40.7095 12.6001 41.7088 13.3071 42.0803 14.3594L46.0558 25.6236H41.1693C40.7234 25.6236 40.362 25.9849 40.362 26.4308C40.362 26.8767 40.7234 27.2381 41.1693 27.2381H46.7813L50.2037 32.0293ZM52.4169 25.6236H49.0917L49.5491 23.7938H52.4169V25.6236Z" fill="#675F3A"/>
<path d="M14.4766 31.651H9.31021C8.8644 31.651 8.50293 32.0124 8.50293 32.4583C8.50293 32.9042 8.8644 33.2656 9.31021 33.2656H14.4766C14.9224 33.2656 15.2838 32.9042 15.2838 32.4583C15.2838 32.0124 14.9224 31.651 14.4766 31.651Z" fill="#675F3A"/>
<path d="M45.4746 31.651H40.3083C39.8623 31.651 39.501 32.0124 39.501 32.4583C39.501 32.9042 39.8623 33.2656 40.3083 33.2656H45.4746C45.9205 33.2656 46.2819 32.9042 46.2819 32.4583C46.2819 32.0124 45.9205 31.651 45.4746 31.651Z" fill="#675F3A"/>
</g>
<defs>
<clipPath id="clip0">
<rect width="55" height="51.3477" fill="white"/>
</clipPath>
</defs>
</svg>
