<svg width="17" height="17" viewBox="0 0 17 17" fill="none" xmlns="http://www.w3.org/2000/svg">
<path d="M10.2588 3.80216C11.0448 4.295 11.596 5.12898 11.6963 6.09705C12.0169 6.24683 12.3727 6.33296 12.7499 6.33296C14.127 6.33296 15.2431 5.21682 15.2431 3.83993C15.2431 2.46283 14.127 1.34668 12.7499 1.34668C11.3859 1.3471 10.2796 2.44331 10.2588 3.80216ZM8.62538 8.90704C10.0025 8.90704 11.1186 7.79068 11.1186 6.4138C11.1186 5.03691 10.0023 3.92076 8.62538 3.92076C7.2485 3.92076 6.13171 5.03712 6.13171 6.41401C6.13171 7.7909 7.2485 8.90704 8.62538 8.90704ZM9.68298 9.07698H7.56737C5.80711 9.07698 4.37507 10.5092 4.37507 12.2695V14.8567L4.38164 14.8972L4.55985 14.953C6.2397 15.4779 7.69911 15.6529 8.90034 15.6529C11.2466 15.6529 12.6065 14.984 12.6903 14.9414L12.8568 14.8572H12.8746V12.2695C12.8753 10.5092 11.4432 9.07698 9.68298 9.07698ZM13.8079 6.50311H11.7086C11.6859 7.34304 11.3274 8.09937 10.7603 8.64334C12.3249 9.10859 13.4697 10.5595 13.4697 12.2733V13.0706C15.5425 12.9946 16.7369 12.4072 16.8156 12.3677L16.9822 12.2833H17V9.6952C17 7.93516 15.568 6.50311 13.8079 6.50311ZM4.25053 6.33339C4.73828 6.33339 5.19208 6.19103 5.5765 5.94854C5.6987 5.15147 6.12598 4.45497 6.73635 3.98059C6.7389 3.93391 6.74335 3.88766 6.74335 3.84056C6.74335 2.46347 5.62699 1.34732 4.25053 1.34732C2.87322 1.34732 1.75728 2.46347 1.75728 3.84056C1.75728 5.21703 2.87322 6.33339 4.25053 6.33339ZM6.48962 8.64334C5.92528 8.10213 5.56801 7.34982 5.54192 6.51499C5.46406 6.50927 5.38705 6.50311 5.3077 6.50311H3.1923C1.43205 6.50311 0 7.93516 0 9.6952V12.2829L0.00657681 12.3227L0.184787 12.379C1.5324 12.7997 2.73511 12.9936 3.77976 13.0547V12.2733C3.78018 10.5595 4.92455 9.10902 6.48962 8.64334Z" fill="white"/>
</svg>
