<svg width="55" height="55" viewBox="0 0 55 55" fill="none" xmlns="http://www.w3.org/2000/svg">
<path d="M4.58494 19.4794C2.05727 19.4794 0.00170898 21.5349 0.00170898 24.0626C0.00170898 26.5903 2.05727 28.6458 4.58494 28.6458C7.11261 28.6458 9.16818 26.5903 9.16818 24.0626C9.16818 21.5349 7.11261 19.4794 4.58494 19.4794ZM4.58494 26.3542C3.31998 26.3542 2.29338 25.3252 2.29338 24.0626C2.29338 22.8 3.31998 21.771 4.58494 21.771C5.84991 21.771 6.87651 22.8 6.87651 24.0626C6.87651 25.3252 5.84991 26.3542 4.58494 26.3542Z" fill="#4F4A44"/>
<path d="M37.3821 21.7847L35.3999 17.8202C35.2052 17.433 34.8087 17.1877 34.3756 17.1877H30.9382C30.6334 17.1877 30.3423 17.3092 30.1292 17.5224L25.8806 21.771H8.02213C7.38965 21.771 6.87629 22.2843 6.87629 22.9168C6.87629 23.5447 7.38277 24.0558 8.00602 24.0626C7.46291 24.0695 6.98393 24.4636 6.8923 25.0205C6.78692 25.6438 7.21079 26.2351 7.83415 26.3382C12.0324 27.0372 19.1798 28.7581 20.8206 30.4471L20.894 30.5914C23.0596 34.8309 25.7567 40.1039 30.9381 40.1039H46.9792C51.551 40.1039 54.9999 37.6405 54.9999 34.3749C54.9999 30.9053 47.2475 22.1927 37.3821 21.7847ZM46.9794 37.8122H30.9381C27.1592 37.8122 24.9135 33.4215 22.9358 29.5487L22.7915 29.2691C22.7502 29.1912 22.6998 29.1156 22.6425 29.0469C20.1515 26.1411 9.42448 24.2804 8.21 24.0786C8.15501 24.0672 8.09539 24.0626 8.04039 24.0626H26.3549C26.6596 24.0626 26.9507 23.9412 27.1638 23.728L31.4124 19.4794H33.6674L35.6427 23.4302C35.8375 23.8174 36.2339 24.0626 36.667 24.0626C46.0672 24.0626 52.7082 32.6608 52.7082 34.3748C52.7083 36.2699 50.1394 37.8122 46.9794 37.8122Z" fill="#4F4A44"/>
<path d="M52.7083 33.2267H43.5144C41.9836 33.2267 40.6591 32.2414 40.2192 30.7771L37.7626 22.5845C37.5816 21.9796 36.9422 21.6358 36.3373 21.8168C35.73 22.0002 35.3863 22.6395 35.5695 23.2445L38.0261 31.437C38.7594 33.8798 40.9663 35.5207 43.5144 35.5207H52.7083C53.3408 35.5207 53.8541 35.0051 53.8541 34.3726C53.8541 33.7401 53.3408 33.2267 52.7083 33.2267Z" fill="#4F4A44"/>
<path d="M6.7916 20.2541L4.50003 15.6709C4.2273 15.1277 3.57655 14.8917 3.0197 15.1324L0.691395 16.1361C0.14603 16.3698 -0.128962 16.9839 0.0589136 17.55L1.20475 20.9874C1.40874 21.5878 2.05948 21.9109 2.65533 21.7116C3.2557 21.5122 3.58117 20.8637 3.37944 20.261L2.56596 17.8227L2.93258 17.6645L4.74291 21.283C4.94453 21.6839 5.34789 21.9154 5.76725 21.9154C5.93912 21.9154 6.11325 21.8742 6.27824 21.7939C6.84434 21.5098 7.07346 20.8223 6.7916 20.2541Z" fill="#4F4A44"/>
<path d="M6.24397 26.4733C5.68023 26.196 4.9905 26.4205 4.70627 26.9866L4.5619 27.2731C4.45652 26.7484 3.99354 26.3541 3.43905 26.3541C2.80657 26.3541 2.29321 26.8675 2.29321 27.5V29.7915C2.29321 30.424 2.80657 30.9374 3.43905 30.9374H4.58488C5.018 30.9374 5.41448 30.6921 5.61148 30.3026L6.75732 28.0111C7.03919 27.445 6.81006 26.7575 6.24397 26.4733Z" fill="#4F4A44"/>
<path d="M33.2298 10.3131C32.5973 10.3131 32.084 10.8265 32.084 11.4589V12.6048C32.084 13.2373 32.5973 13.7506 33.2298 13.7506C33.8623 13.7506 34.3757 13.2373 34.3757 12.6048V11.4589C34.3755 10.8264 33.8623 10.3131 33.2298 10.3131Z" fill="#4F4A44"/>
<path d="M53.8542 12.6046H33.2298C32.5973 12.6046 32.084 13.118 32.084 13.7504C32.084 14.3829 32.5973 14.8963 33.2298 14.8963H53.8542C54.4867 14.8963 55 14.3829 55 13.7504C55 13.118 54.4867 12.6046 53.8542 12.6046Z" fill="#4F4A44"/>
<path d="M33.2299 12.6046H12.6056C11.9731 12.6046 11.4597 13.118 11.4597 13.7504C11.4597 14.3829 11.9731 14.8963 12.6056 14.8963H33.2299C33.8624 14.8963 34.3758 14.3829 34.3758 13.7504C34.3758 13.118 33.8624 12.6046 33.2299 12.6046Z" fill="#4F4A44"/>
<path d="M37.8131 37.8123C37.1806 37.8123 36.6672 38.3256 36.6672 38.9581V43.5413C36.6672 44.1738 37.1806 44.6872 37.8131 44.6872C38.4456 44.6872 38.9589 44.1738 38.9589 43.5413V38.9581C38.9589 38.3255 38.4456 37.8123 37.8131 37.8123Z" fill="#4F4A44"/>
<path d="M46.9793 37.8123C46.3468 37.8123 45.8335 38.3256 45.8335 38.9581V43.5413C45.8335 44.1738 46.3468 44.6872 46.9793 44.6872C47.6118 44.6872 48.1252 44.1738 48.1252 43.5413V38.9581C48.1251 38.3255 47.6118 37.8123 46.9793 37.8123Z" fill="#4F4A44"/>
<path d="M54.4134 40.2504C53.8611 39.941 53.1622 40.1381 52.8528 40.6904C52.3097 41.6597 50.096 42.2647 49.271 42.3953H26.3551C25.7226 42.3953 25.2092 42.9086 25.2092 43.5411C25.2092 44.1736 25.7226 44.687 26.3551 44.687L49.4291 44.6755C49.8531 44.6158 53.609 44.0315 54.8534 41.8087C55.1627 41.2564 54.9656 40.5597 54.4134 40.2504Z" fill="#4F4A44"/>
</svg>
