<svg width="18" height="20" viewBox="0 0 18 20" fill="none" xmlns="http://www.w3.org/2000/svg">
<path d="M16.4243 7.27333H15.1469C15.1897 6.97612 15.2122 6.67248 15.2122 6.36364C15.2122 6.05521 15.1897 5.75194 15.1471 5.45515H16.4243C16.9264 5.45515 17.3334 5.04812 17.3334 4.54606C17.3334 4.044 16.9264 3.63697 16.4243 3.63697H14.5976C13.5746 1.48861 11.3823 0 8.84857 0C8.83596 0 8.82335 0.000242424 8.81081 0.000787879H3.39869C3.39711 0.000787879 3.3956 0.000545455 3.39402 0.000545455C2.89196 0.000545455 2.48493 0.407576 2.48493 0.909636V0.909879V3.63697H1.57584C1.07378 3.63697 0.666748 4.044 0.666748 4.54606C0.666748 5.04812 1.07378 5.45515 1.57584 5.45515H2.48493V7.27333H1.57584C1.07378 7.27333 0.666748 7.68036 0.666748 8.18242C0.666748 8.68448 1.07378 9.09152 1.57584 9.09152H2.48493V11.8182V19.0909C2.48493 19.593 2.89196 20 3.39402 20C3.89608 20 4.30311 19.593 4.30311 19.0909V12.7273H8.84857C11.3818 12.7273 13.5738 11.2392 14.5971 9.09152H16.4243C16.9264 9.09152 17.3334 8.68448 17.3334 8.18242C17.3334 7.68036 16.9264 7.27333 16.4243 7.27333ZM4.30311 1.81897H8.84857C8.86008 1.81897 8.8716 1.81879 8.88299 1.8183C10.3531 1.82927 11.6589 2.54194 12.4826 3.63697H4.30311V1.81897ZM4.30311 5.45515H13.3027C13.3625 5.74879 13.394 6.05261 13.394 6.36364C13.394 6.67509 13.3624 6.97927 13.3024 7.27333H4.30311V5.45515ZM8.84857 10.9091H4.30311V9.09152H12.482C11.6518 10.1944 10.3322 10.9091 8.84857 10.9091Z" fill="#675F3A"/>
</svg>
