<svg width="55" height="55" viewBox="0 0 55 55" fill="none" xmlns="http://www.w3.org/2000/svg">
<path d="M49.6774 25.8624V21.2903H43.4677V22.4994L33.7097 17.2141V10.285C33.7097 9.87782 33.6689 9.46887 33.589 9.06702L32.6132 4.19242C32.128 1.76266 29.9777 0 27.5 0C25.0223 0 22.872 1.76266 22.3859 4.19242L21.4101 9.0679C21.3311 9.46887 21.2903 9.87782 21.2903 10.285V17.2141L11.5323 22.4994V21.2903H5.32258V25.8624L0 28.7455V33.7097H1.85048L21.2903 30.329V37.3521C21.2903 39.5184 21.6221 41.6572 22.244 43.7268L13.3065 50.1077V55H15.1898L25.1439 52.5108L25.9733 55H29.0258L29.8552 52.5108L39.7038 54.9734L41.6935 55V50.1077L32.756 43.7259C33.3779 41.6563 33.7097 39.5184 33.7097 37.3512V30.3281L53.0741 33.6955L55 33.7097V28.7455L49.6774 25.8624ZM7.09677 23.0645H9.75806V23.4602L7.09677 24.9017V23.0645ZM21.2903 25.0135L9.56556 27.6189L9.95056 29.3514L21.2903 26.832V28.5281L1.77419 31.9222V29.802L21.2903 19.2305V25.0135ZM15.0806 53.1983V51.0214L22.8081 45.5036L24.5815 50.8244L15.0806 53.1983ZM27.7475 53.2258H27.2516L24.1113 43.8031C23.4167 41.7193 23.0645 39.5485 23.0645 37.3512V10.285C23.0645 9.99403 23.0929 9.70129 23.1506 9.41565L24.1264 4.54105C24.4466 2.93806 25.8651 1.77419 27.5 1.77419C29.1349 1.77419 30.5534 2.93806 30.8745 4.54016L31.8503 9.41387C31.9071 9.70129 31.9355 9.99403 31.9355 10.285V37.3521C31.9355 39.5494 31.5833 41.7202 30.8887 43.8031L27.7475 53.2258ZM39.9194 51.0214V53.1983L30.4185 50.8235L32.1919 45.5027L39.9194 51.0214ZM45.2419 23.0645H47.9032V24.9017L45.2419 23.4602V23.0645ZM53.2258 31.9222L33.7097 28.5281V26.832L45.0494 29.3523L45.4344 27.6198L33.7097 25.0144V19.2314L53.2258 29.8029V31.9222Z" fill="#675F3A"/>
</svg>
