<svg width="22" height="22" viewBox="0 0 22 22" fill="none" xmlns="http://www.w3.org/2000/svg">
<path d="M7.10072 7.10033C8.09014 6.11091 9.48697 5.4707 11.0002 5.4707C12.5134 5.4707 13.9102 6.08181 14.8997 7.10033C15.8891 8.08975 16.5293 9.48658 16.5293 10.9998C16.5293 12.513 15.8891 13.9099 14.8997 14.8993C13.9102 15.8887 12.5134 16.5289 11.0002 16.5289C9.48697 16.5289 8.09014 15.9178 7.10072 14.8993C6.11131 13.9099 5.4711 12.513 5.4711 10.9998C5.4711 9.48658 6.08221 8.08975 7.10072 7.10033Z" fill="#C9981A"/>
<path d="M11.0002 3.75396C10.5928 3.75396 10.2436 3.40476 10.2436 2.99735V0.756613C10.2436 0.349206 10.5928 0 11.0002 0C11.4076 0 11.7568 0.349206 11.7568 0.756613V2.99735C11.7568 3.40476 11.4076 3.75396 11.0002 3.75396Z" fill="#C9981A"/>
<path d="M4.80151 5.87811L3.20098 4.27759C2.90998 3.98658 2.90998 3.52098 3.20098 3.22997C3.49199 2.93897 3.95759 2.93897 4.2486 3.22997L5.84913 4.8305C6.14013 5.1215 6.14013 5.58711 5.84913 5.87811C5.58722 6.16912 5.12162 6.16912 4.80151 5.87811Z" fill="#C9981A"/>
<path d="M0.75654 10.2437H2.99729C3.4047 10.2437 3.75391 10.5929 3.75391 11.0003C3.75391 11.4077 3.4047 11.7569 2.99729 11.7569H0.75654C0.349131 11.7569 -7.62939e-05 11.4077 -7.62939e-05 11.0003C-7.62939e-05 10.5929 0.349131 10.2437 0.75654 10.2437Z" fill="#C9981A"/>
<path d="M4.83081 16.1216C5.12181 15.8306 5.58742 15.8306 5.87843 16.1216C6.16943 16.4126 6.16943 16.8782 5.87843 17.1692L4.27789 18.7697C3.98689 19.0607 3.52128 19.0607 3.23027 18.7697C2.93927 18.4787 2.93927 18.0131 3.23027 17.7221L4.83081 16.1216Z" fill="#C9981A"/>
<path d="M11.0002 18.2461C11.4076 18.2461 11.7568 18.5953 11.7568 19.0027V21.2435C11.7568 21.6509 11.4076 22.0001 11.0002 22.0001C10.5928 22.0001 10.2436 21.6509 10.2436 21.2435V19.0027C10.2436 18.5953 10.5928 18.2461 11.0002 18.2461Z" fill="#C9981A"/>
<path d="M17.1988 16.1216L18.7993 17.7221C19.0903 18.0131 19.0903 18.4787 18.7993 18.7697C18.5083 19.0607 18.0427 19.0607 17.7517 18.7697L16.1512 17.1692C15.8602 16.8782 15.8602 16.4126 16.1512 16.1216C16.4131 15.8306 16.8787 15.8306 17.1988 16.1216Z" fill="#C9981A"/>
<path d="M18.246 11.0003C18.246 10.5929 18.5952 10.2437 19.0026 10.2437H21.2434C21.6508 10.2437 22 10.5929 22 11.0003C22 11.4077 21.6508 11.7569 21.2434 11.7569H19.0026C18.5952 11.7569 18.246 11.4077 18.246 11.0003Z" fill="#C9981A"/>
<path d="M17.1988 5.87811C16.9078 6.16912 16.4422 6.16912 16.1512 5.87811C15.8602 5.58711 15.8602 5.1215 16.1512 4.8305L17.7517 3.22997C18.0427 2.93897 18.5083 2.93897 18.7993 3.22997C19.0903 3.52098 19.0903 3.98658 18.7993 4.27759L17.1988 5.87811Z" fill="#C9981A"/>
</svg>
