<svg width="31" height="21" viewBox="0 0 31 21" fill="none" xmlns="http://www.w3.org/2000/svg">
<path d="M22.3605 6.94211L22.361 6.94291L29.6527 18.6096C29.7671 18.7927 29.8304 19.0031 29.836 19.2189C29.8415 19.4347 29.7891 19.6481 29.6843 19.8368C29.5794 20.0255 29.4259 20.1827 29.2398 20.292C29.0536 20.4013 28.8415 20.4588 28.6256 20.4583H28.6251H2.37599C2.16471 20.4569 1.95749 20.4002 1.77498 20.2937C1.59231 20.1872 1.4408 20.0345 1.3356 19.851C1.23041 19.6675 1.17522 19.4597 1.17554 19.2482C1.17586 19.0369 1.23159 18.8293 1.33717 18.6463C1.33726 18.6461 1.33735 18.646 1.33744 18.6458L11.5443 1.1484C11.5444 1.14816 11.5446 1.14792 11.5447 1.14768C11.6517 0.967689 11.8036 0.818581 11.9855 0.714973C12.1677 0.611226 12.3738 0.556671 12.5834 0.556671C12.7931 0.556671 12.9992 0.611226 13.1813 0.714973C13.3634 0.818661 13.5154 0.967921 13.6224 1.1481C13.6225 1.1482 13.6225 1.1483 13.6226 1.1484L18.42 9.31413L18.6309 9.67313L18.8486 9.31822L20.3063 6.94211C20.3065 6.94191 20.3066 6.94172 20.3067 6.94152C20.4151 6.76693 20.5661 6.62284 20.7457 6.52289C20.9254 6.42282 21.1277 6.3703 21.3334 6.3703C21.5391 6.3703 21.7415 6.42282 21.9212 6.52289C22.1009 6.62295 22.2521 6.76725 22.3605 6.94211ZM13.2397 18.0417H13.3788L13.4522 17.9234L17.0688 12.0901L17.1482 11.962L17.072 11.8319L12.7991 4.54026L12.5831 4.17169L12.3676 4.54051L4.69676 17.6655L4.47692 18.0417H4.9126H13.2397ZM16.4563 17.6567L16.2094 18.0417H16.6668H26.0001H26.4516L26.212 17.659L21.5453 10.2069L21.328 9.8599L21.1186 10.2117L19.6624 12.6581L16.4563 17.6567Z" fill="#675F3A" stroke="white" stroke-width="0.5"/>
</svg>
