<svg width="16" height="16" viewBox="0 0 16 16" fill="none" xmlns="http://www.w3.org/2000/svg">
<path d="M8 16C12.4183 16 16 12.4183 16 8C16 3.58172 12.4183 0 8 0C3.58172 0 0 3.58172 0 8C0 12.4183 3.58172 16 8 16Z" fill="#AEAEAE"/>
<path d="M11.0748 11.6108C10.9148 11.6108 10.755 11.5498 10.6328 11.4278L4.57577 5.37055C4.33152 5.1263 4.33152 4.7308 4.57577 4.4868C4.82002 4.2428 5.21551 4.24255 5.45951 4.4868L11.5168 10.544C11.761 10.7883 11.761 11.1838 11.5168 11.4278C11.3945 11.5498 11.2348 11.6108 11.0748 11.6108Z" fill="white"/>
<path d="M5.01679 11.6109C4.85679 11.6109 4.69704 11.5499 4.57479 11.4279C4.33054 11.1836 4.33054 10.7881 4.57479 10.5441L10.632 4.4869C10.8763 4.24265 11.2718 4.24265 11.5158 4.4869C11.7598 4.73115 11.76 5.12665 11.5158 5.37065L5.45879 11.4279C5.33679 11.5499 5.17679 11.6109 5.01679 11.6109Z" fill="white"/>
</svg>
